<?xml version="1.0" encoding="iso-8859-1"?>
<!-- Uploaded to: SVG Repo, www.svgrepo.com, Generator: SVG Repo Mixer Tools -->
<svg fill="#000000" height="800px" width="800px" version="1.1" id="Layer_1" xmlns="http://www.w3.org/2000/svg" xmlns:xlink="http://www.w3.org/1999/xlink" 
	 viewBox="0 0 503.825 503.825" xml:space="preserve">
<g>
	<g>
		<g>
			<path d="M184.764,176.262c9.258,0,16.787-7.529,16.787-16.787c0-9.258-7.529-16.787-16.787-16.787
				c-9.258,0-16.787,7.529-16.787,16.787C167.977,168.733,175.506,176.262,184.764,176.262z"/>
			<path d="M478.534,268.808c-4.642,0-8.393,3.76-8.393,8.393c0,23.493-7.705,33.532-14.504,42.378
				c-3.76,4.893-7.571,9.938-9.459,16.376h-1.922c-0.613-11.356,0.974-19.103,2.434-26.028c2.224-10.525,4.323-20.472-2.417-36.05
				c-1.838-4.255-6.773-6.236-11.029-4.381c-4.264,1.847-6.22,6.782-4.381,11.037c4.625,10.685,3.408,16.426,1.402,25.936
				c-1.57,7.453-3.416,16.476-2.812,29.486h-3.357c-4.944-7.655-4.684-14.067-4.323-22.562c0.453-10.66,1.016-23.921-9.703-40.708
				c-2.493-3.911-7.68-5.044-11.591-2.552c-3.911,2.484-5.053,7.68-2.56,11.583c7.873,12.33,7.504,20.967,7.076,30.963
				c-0.428,10.047-0.789,21.361,8.393,34.304v56.119c0,27.774-22.587,50.361-50.361,50.361H260.305
				c-27.774,0-50.361-22.637-50.361-50.47v-84.044c9.258,0,16.787-7.529,16.787-16.787V268.59h109.115
				c9.258,0,16.787-7.529,16.787-16.787V67.148c0-9.258-7.529-16.787-16.787-16.787h-8.393V16.762
				C327.452,7.521,319.932,0,310.691,0H58.837c-9.241,0-16.762,7.521-16.762,16.762v33.599h-8.393
				c-9.258,0-16.787,7.529-16.787,16.787v184.656c0,9.258,7.529,16.787,16.787,16.787h109.115v33.574
				c0,9.258,7.529,16.787,16.787,16.787v84.044c0,55.598,45.182,100.83,100.721,100.83h100.721
				c55.539,0,100.721-45.174,100.721-100.721v-58.754c0-4.935,2.468-8.385,7.202-14.537c7.588-9.888,17.979-23.409,17.979-52.61
				C486.928,272.569,483.176,268.808,478.534,268.808z M58.854,50.361l-0.017-33.574l251.828-0.025v33.599H58.854z M151.19,159.475
				c0-18.516,15.058-33.574,33.574-33.574s33.574,15.058,33.574,33.574s-15.058,33.574-33.574,33.574S151.19,177.991,151.19,159.475
				z M159.584,302.164V268.59h50.361l0.017,33.574H159.584z"/>
			<path d="M402.993,243.631c4.642,0,8.393-3.752,8.393-8.393c0-23.493,7.705-33.523,14.504-42.378
				c3.76-4.893,7.571-9.929,9.459-16.376h1.922c0.613,11.356-0.974,19.103-2.434,26.036c-2.224,10.517-4.323,20.463,2.417,36.041
				c1.368,3.173,4.457,5.07,7.714,5.07c1.108,0,2.241-0.218,3.315-0.688c4.264-1.847,6.22-6.782,4.381-11.029
				c-4.625-10.693-3.408-16.434-1.402-25.936c1.57-7.462,3.416-16.476,2.812-29.495h3.357c4.944,7.655,4.684,14.076,4.323,22.562
				c-0.453,10.66-1.016,23.921,9.703,40.708c1.603,2.51,4.314,3.878,7.084,3.878c1.553,0,3.106-0.428,4.507-1.318
				c3.911-2.493,5.053-7.68,2.56-11.591c-7.873-12.33-7.504-20.958-7.076-30.963c0.428-10.039,0.789-21.361-8.393-34.296V8.615
				c0-4.642-3.752-8.393-8.393-8.393h-33.574c-4.642,0-8.393,3.752-8.393,8.393V168.09c0,4.935-2.468,8.385-7.202,14.537
				c-7.588,9.888-17.979,23.409-17.979,52.61C394.6,239.88,398.352,243.631,402.993,243.631z"/>
		</g>
	</g>
</g>
</svg>